# xmcd CD database file
#
# Track frame offsets:
#	150
#	27201
#	46417
#	69001
#	86166
#	107502
#	135234
#	153920
#	171157
#	201560
#
# Disc length: 3035 seconds
#
# Revision: 1
# Processed by: cddbd v1.5.2PL0 Copyright (c) Steve Scherf et al.
# Submitted via: CDex 1.77
#
DISCID=7a0bd90a
DTITLE=John Campbell - One Believer
DYEAR=1991
DGENRE=Blues
TTITLE0=Devil In My Closet
TTITLE1=Angel Of Sorrow 
TTITLE2=Wild Streak
TTITLE3=Couldn't Do Nothin'
TTITLE4=Tiny Coffin
TTITLE5=World Of Trouble
TTITLE6=Voodoo Edge
TTITLE7=Person To Person
TTITLE8=Take Me Down
TTITLE9=One Believer 
EXTD=YEAR: 1991
EXTT0=
EXTT1=
EXTT2=
EXTT3=
EXTT4=
EXTT5=
EXTT6=
EXTT7=
EXTT8=
EXTT9=
PLAYORDER=
